# xmcd
#
# Track frame offsets:
#	150
#	17498
#	36482
#	54133
#	72223
#	89009
#	106051
#	123263
#
# Disc length: 1857 seconds
#
# Revision: 0
# Processed by: cddbd v1.5.2PL0 Copyright (c) Steve Scherf et al.
# Submitted via: dBpowerAMP V4.0
#
DISCID=5f073f08
DTITLE=Patty Obasi - Bianu Ka Anyi Kele Chineke
DYEAR=1900
DGENRE=Gospel
TTITLE0=Chineke Onye Kere Nmadu
TTITLE1=Bianu Ka Anyi Kele Chineke
TTITLE2=Odighi Ihunanya Kariri Nka
TTITLE3=Onye Nedum Ije
TTITLE4=Ogbaputawom Nala Aputi
TTITLE5=Uwa Nmehie
TTITLE6=Ole Ebe Ka Nsopurum Di
TTITLE7=Roputa Onwe Unu Onye Unu Ga Efe
EXTD=
EXTT0=
EXTT1=
EXTT2=
EXTT3=
EXTT4=
EXTT5=
EXTT6=
EXTT7=
PLAYORDER=
